<?xml version="1.0" encoding="UTF-8" standalone="no"?>
<!-- Created with Inkscape (http://www.inkscape.org/) -->

<svg
   xmlns:dc="http://purl.org/dc/elements/1.1/"
   xmlns:cc="http://creativecommons.org/ns#"
   xmlns:rdf="http://www.w3.org/1999/02/22-rdf-syntax-ns#"
   xmlns:svg="http://www.w3.org/2000/svg"
   xmlns="http://www.w3.org/2000/svg"
   xmlns:sodipodi="http://sodipodi.sourceforge.net/DTD/sodipodi-0.dtd"
   xmlns:inkscape="http://www.inkscape.org/namespaces/inkscape"
   width="100mm"
   height="100mm"
   viewBox="0 0 100 100"
   version="1.1"
   id="svg8"
   inkscape:version="0.92.4 (33fec40, 2019-01-16)"
   sodipodi:docname="logo.svg">
  <defs
     id="defs2" />
  <sodipodi:namedview
     id="base"
     pagecolor="#ffffff"
     bordercolor="#666666"
     borderopacity="1.0"
     inkscape:pageopacity="0.0"
     inkscape:pageshadow="2"
     inkscape:zoom="0.98994949"
     inkscape:cx="15.669305"
     inkscape:cy="211.04971"
     inkscape:document-units="mm"
     inkscape:current-layer="layer1"
     showgrid="false"
     inkscape:window-width="1319"
     inkscape:window-height="713"
     inkscape:window-x="47"
     inkscape:window-y="27"
     inkscape:window-maximized="1" />
  <metadata
     id="metadata5">
    <rdf:RDF>
      <cc:Work
         rdf:about="">
        <dc:format>image/svg+xml</dc:format>
        <dc:type
           rdf:resource="http://purl.org/dc/dcmitype/StillImage" />
        <dc:title></dc:title>
      </cc:Work>
    </rdf:RDF>
  </metadata>
  <g
     inkscape:label="Layer 1"
     inkscape:groupmode="layer"
     id="layer1"
     transform="translate(0,-197)">
    <rect
       style="opacity:1;fill:#f2f2f2;fill-opacity:1;stroke:none;stroke-width:83.39033508;stroke-linecap:round;stroke-linejoin:round;stroke-miterlimit:4;stroke-dasharray:none;stroke-opacity:1;paint-order:normal"
       id="rect815"
       width="100"
       height="100"
       x="-8.8817842e-16"
       y="197" />
    <g
       id="g844"
       transform="matrix(0.81541323,0,0,0.81541323,9.8198416,34.207684)">
      <path
         inkscape:connector-curvature="0"
         id="path832"
         d="m 38.671687,216.5147 v 3.73251 L 2.5277158,219.96373 c 0,0 -2.39886177,-0.13999 -1.58277533,2.90569 0.81608643,3.04568 0.59185933,8.64954 0.59185933,8.64954 l -0.6272946,4.9576 c 0,0 -0.14174108,3.44903 4.0278087,0.70871 C 9.1068638,234.44494 22.350414,225.1045 22.350414,225.1045 l 15.459017,0.13908 c 0,0 0.167897,0.17412 -0.04508,0.17412 -0.212982,0 -0.530362,-0.0167 -0.530362,-0.0167 l -0.321559,0.53872 c 0,0 0.151027,0.048 0.17957,0.15451 0.02854,0.10653 0.0028,1.55895 0.0028,1.55895 l 1.748142,0.0472 c 0,0 -0.04134,0.44884 0.277574,0.44294 0.318918,-0.006 0.844542,0.006 0.844542,0.006 0,0 0.413412,-0.14174 0.437034,-0.37798 0.02363,-0.23623 0.761859,-0.1063 0.761859,-0.1063 l 0.04725,0.27757 c 0,0 0.08268,0.36026 0.407506,0.32483 0.324824,-0.0354 0.626023,0.006 0.626023,0.006 0,0 3.962844,0.72642 2.013905,3.89197 -1.948942,3.16555 -5.941314,9.02418 -5.941314,9.02418 0,0 -0.165365,0.4961 0.188986,0.73233 0.354354,0.23624 6.886255,3.98056 6.886255,3.98056 0,0 1.122117,-0.2008 0.755952,-0.92131 -0.366165,-0.72052 0.318918,-1.61821 0.318918,-1.61821 l 3.047434,-6.29567 c 0,0 0.696894,-0.86226 1.724514,-0.33073 1.027623,0.53153 0.685083,0.66146 2.019811,0.69689 1.33473,0.0354 4.252232,0.0118 4.252232,0.0118 0,0 1.204799,-0.14174 1.61821,-1.4056 0.413412,-1.26386 1.204802,-3.26005 1.204802,-3.26005 0,0 0.472469,-0.64964 0.862256,-0.67327 0.389789,-0.0236 1.185672,-0.0402 1.185672,-0.0402 l -0.885331,1.84583 0.409255,0.23386 0.555422,-0.82686 c 0,0 0.338261,-0.63059 0.300677,-0.84357 -0.03758,-0.21298 0.660821,-0.7943 0.660821,-0.7943 l 0.980376,-0.006 c 0,0 0.106307,0.46066 0.301199,0.502 0.194895,0.0413 0.141743,0.8032 0.141743,0.8032 0,0 1.063056,4.48847 1.441032,5.5279 0.377978,1.03943 3.96875,9.68564 5.008187,11.10305 1.039434,1.41741 3.97402,6.06221 4.141065,6.12903 0.167042,0.0668 1.319641,-0.21716 2.221677,-1.11919 0.902033,-0.90203 1.837478,-1.46998 1.837478,-1.46998 0,0 -0.0084,-0.31738 0.08352,-0.31738 0.09187,0 0.167045,-0.22551 -0.334086,-0.71829 -0.501132,-0.49278 -3.958929,-5.54584 -4.46006,-6.76526 -0.501132,-1.21942 -3.240644,-7.41673 -3.274052,-8.18513 -0.03341,-0.7684 -1.820773,-6.78196 -1.770661,-7.24969 0.05011,-0.46772 0.385752,-0.2896 0.385752,-0.2896 0,0 0.236236,-0.006 -0.124023,-0.68508 -0.360257,-0.67918 -0.183081,-2.76395 -0.183081,-2.76395 0,0 0.425222,-0.63784 0.897694,-0.64965 0.472469,-0.0118 3.413596,-0.0236 3.413596,-0.0236 0,0 0.441793,-0.0607 0.441793,-0.48246 0,-0.42179 0.104405,-0.20881 0.104405,-0.20881 0,0 -0.112755,0.52201 0.334086,0.49696 0.446839,-0.0251 2.363663,0.16286 1.687137,2.00034 -0.676524,1.83748 -0.5763,5.06977 -0.5763,5.06977 l 0.283975,0.15869 c 0,0 0.100227,0.20881 -0.11693,0.27562 -0.217157,0.0668 -0.185602,0.50337 -0.185602,0.50337 l 0.295293,0.0177 0.003,0.20375 c 0,0 -0.315962,0.0148 -0.31301,0.15355 0.003,0.13879 0.01476,0.31892 0.01476,0.31892 l 0.345493,0.0768 -0.0118,0.23329 c 0,0 -0.313013,-0.13584 -0.333682,0.0827 -0.02066,0.21852 -0.0089,0.36026 -0.0089,0.36026 l 0.363212,0.0532 0.003,0.19489 c 0,0 -0.304155,-0.0177 -0.289388,0.28349 0.01476,0.3012 0.02066,0.28643 0.02066,0.28643 l 0.32187,0.0118 0.003,0.21852 c 0,0 -0.318918,-0.17127 -0.324824,0.25395 -0.0059,0.42523 0.163833,1.22422 0.163833,1.22422 0,0 0.05429,0.21506 0.344527,0.23177 0.290237,0.0167 3.980108,0.0589 4.015544,0.0471 0.03543,-0.0118 0.531527,-0.0532 0.531527,-0.67918 0,-0.62602 0.02953,-0.99218 0.02953,-0.99218 l -0.175006,-0.20274 c 0,0 0.137811,-0.0793 0.227595,-0.0585 0.08979,0.0209 0.05429,-0.54707 0.05429,-0.54707 0,0 -0.204628,-0.1044 -0.238037,-0.0752 -0.03341,0.0292 0.03341,-0.13364 0.217157,-0.14199 0.183747,-0.008 0.06264,-0.58047 0.06264,-0.58047 0,0 -0.137811,-0.0668 -0.154516,-0.0334 -0.0167,0.0334 -0.04594,-0.12111 0.01251,-0.14199 0.05846,-0.0209 0.196276,-0.008 0.175398,-0.17122 -0.02088,-0.16287 -0.0042,-0.41343 -0.0042,-0.41343 0,0 -0.137811,-0.0794 -0.217157,-0.0752 -0.07935,0.004 0.208806,-0.15034 0.208806,-0.15034 0,0 0.07726,-0.49278 -0.04176,-0.55751 -0.119017,-0.0647 -0.261006,-0.0647 -0.261006,-0.0647 0,0 -0.0355,-0.12319 0.21507,-0.11484 0.250565,0.008 -0.412552,-5.08144 -0.613352,-5.57753 -0.2008,-0.49609 0.242141,-1.7068 1.139835,-1.68317 0.897695,0.0236 2.504091,0 2.504091,0 0,0 1.098494,0.48428 1.110305,1.09258 0.01183,0.60831 -0.07087,1.94894 -0.07087,1.94894 0,0 0.01773,0.502 0.561057,0.4961 0.54334,-0.006 0.93313,-0.006 0.93313,-0.006 0,0 0.283482,0.16536 0.218516,-0.4961 -0.06497,-0.66146 -0.02953,-3.42541 -0.02953,-3.42541 0,0 -0.02363,-0.29529 0.38979,-0.29529 0.413411,0 1.606399,-0.0118 1.606399,-0.0118 0,0 0.37207,-0.11221 0.454752,-0.53153 0.08268,-0.41932 0.407504,-0.32482 0.407504,-0.32482 0,0 6.80648,0.0462 7.382782,0.0462 0.5763,0 0.509482,-3.54132 0.12528,-3.55802 -0.384199,-0.0167 -7.742462,0.0835 -7.742462,0.0835 0,0 -0.242213,-0.61806 -0.626414,-0.61806 -0.384199,0 -1.753955,0.0668 -1.753955,0.0668 0,0 -0.242213,-0.0501 -0.11693,-0.31739 0.12528,-0.26727 -0.0084,-2.81468 -0.0084,-2.81468 0,0 -0.292327,-0.25056 -0.359142,-0.0585 -0.06682,0.1921 -0.03341,-1.3447 -0.03341,-1.3447 0,0 -0.584653,-2.98173 -0.860275,-3.14877 -0.275621,-0.16705 -1.528447,0.12528 -1.528447,0.21715 0,0.0919 -0.275622,1.03567 -0.233863,1.91265 0.04176,0.87698 0.09187,1.1526 0.09187,1.1526 0,0 0.26239,0.0892 0.221049,0.14534 -0.04134,0.0561 -0.194895,0.0207 -0.17127,0.14174 0.02363,0.12107 -0.05611,1.24319 -0.05611,1.24319 l -2.409597,-0.17718 c 0,0 0.248047,-0.33073 -0.177176,-0.37797 -0.425225,-0.0473 -1.511906,0 -2.315104,0.16536 -0.803201,0.16537 -0.815012,-0.0236 -0.803201,-0.0709 0.01183,-0.0472 -3.525808,0.065 -3.525808,0.065 0,0 -0.05315,-0.12992 -0.620117,-0.11811 -0.566965,0.0118 -4.086868,-0.0236 -4.086868,-0.0236 0,0 0.07678,-0.18899 -0.51381,-0.2008 -0.59059,-0.0118 -2.430082,0.014 -2.430082,0.014 0,0 -0.01252,0.22551 -0.576299,0.23387 -0.563772,0.008 -6.940656,-0.10441 -6.940656,-0.10441 0,0 0.492778,0.5596 -0.07517,0.53454 -0.567947,-0.025 -0.275622,-0.64312 -0.275622,-0.64312 0,0 -0.09187,-0.4009 -0.467719,-0.37584 -0.375849,0.025 -0.0084,0.44266 -0.0084,0.44266 0,0 0.125283,0.14199 -0.534538,0.10858 -0.659823,-0.0334 -1.662083,-0.0167 -1.662083,-0.0167 0,0 0.242212,-0.5596 -0.183748,-0.54289 -0.425961,0.0167 -0.309031,0.51783 -0.309031,0.51783 0,0 0.02506,0.29233 0.11693,0.25057 0.09187,-0.0418 -0.0084,0.30903 -0.100227,0.29232 -0.09187,-0.0167 -0.54289,0.0752 -0.54289,-0.27562 0,-0.35079 0.11693,-0.33409 -0.826866,-0.30903 -0.943795,0.0251 -5.69618,-0.008 -5.69618,-0.008 0,0 -0.09187,0.44266 0.02506,0.45937 0.11693,0.0167 -0.626414,0.0668 -0.785103,0.0835 -0.158692,0.0167 -0.06682,-0.56795 -0.06682,-0.56795 0,0 -0.125283,-0.44266 -0.375849,-0.4009 -0.250565,0.0418 0.258919,-0.3508 0.258919,-0.3508 0,0 0.275622,-0.52618 -0.0084,-0.70993 -0.283974,-0.18375 -0.977204,-0.50113 -0.977204,-0.50113 0,0 -0.325736,0.29233 -0.242213,0.43431 0.08352,0.14199 -0.350792,-0.0835 -0.317383,-0.16704 0.03341,-0.0835 0.342439,-0.32574 0.100227,-0.34244 -0.242213,-0.0167 -0.760048,-0.28397 -0.885331,-0.22551 -0.125283,0.0585 -0.258918,0.9438 -0.258918,0.9438 0,0 -0.242213,-0.25057 -0.217157,-0.58465 0.02506,-0.33409 0.0084,-0.55125 -0.409255,-0.5763 -0.41761,-0.0251 -0.960501,-0.0167 -0.960501,-0.0167 0,0 -0.952148,0.25057 -0.993907,1.10249 -0.04176,0.85192 -0.07517,1.52845 -0.07517,1.52845 l -2.706103,-0.0334 c 0,0 0.05011,-0.39255 -0.751697,-0.39255 -0.801806,0 -0.785103,0.48442 -0.785103,0.48442 0,0 -0.22325,0.009 -0.232733,0.0631 z"
         style="fill:#4b4b4b;fill-opacity:1;stroke:#000000;stroke-width:0.26458332px;stroke-linecap:butt;stroke-linejoin:miter;stroke-opacity:1" />
      <path
         inkscape:connector-curvature="0"
         id="path834"
         d="m 6.4979904,223.91849 7.5837726,-0.0334 c 0,0 2.088043,0.71829 0.367496,1.95441 -1.720548,1.23612 -7.4501383,5.12823 -7.4501383,5.12823 0,0 -1.2528259,0.55124 -1.2695303,-0.93544 -0.016703,-1.48669 -0.016703,-5.51244 -0.016703,-5.51244 0,0 0.016703,-0.56794 0.7851042,-0.60135 z"
         style="fill:#ececec;stroke:#000000;stroke-width:0.26458332px;stroke-linecap:butt;stroke-linejoin:miter;stroke-opacity:1" />
      <path
         inkscape:connector-curvature="0"
         id="path836"
         d="m 51.700056,232.40151 -1.145741,2.18517 c 0,0 -0.248047,0.59059 0.307105,0.90951 0.555154,0.31891 1.535528,0.85044 1.535528,0.85044 0,0 0.484282,0.2953 1.653645,0.28349 1.169366,-0.0118 3.08287,-0.0472 3.08287,-0.0472 0,0 0.944941,-0.33073 1.086681,-0.72052 0.141742,-0.38979 1.299294,-3.46084 1.299294,-3.46084 0,0 0.283483,-0.33073 -0.366165,-0.33073 -0.649647,0 -4.075056,-0.0473 -4.075056,-0.0473 0,0 -0.661459,1.004 -0.578776,1.67727 0.08268,0.67327 0.0945,1.02762 0.437036,1.4056 0.34254,0.37798 0.649647,0.82682 0.649647,0.82682 0,0 0.259858,0.31892 -0.07087,0.26577 -0.33073,-0.0532 -0.81206,-0.27758 -1.092587,-0.82387 -0.280529,-0.5463 -0.559503,-1.25863 -0.551153,-2.00197 0.0084,-0.74335 0.06682,-1.23612 0.0084,-1.29459 -0.05846,-0.0585 -1.854182,-0.008 -1.854182,-0.008 0,0 -0.200239,-0.0223 -0.325628,0.3313 z"
         style="fill:#ececec;fill-opacity:1;stroke:#000000;stroke-width:0.26458332px;stroke-linecap:butt;stroke-linejoin:miter;stroke-opacity:1" />
      <path
         inkscape:connector-curvature="0"
         id="path838"
         d="m 93.732187,222.13119 c 0,0 0.206706,-0.1949 0.543343,-0.22443 0.336635,-0.0295 1.080776,-0.0413 1.080776,-0.0413 0,0 0.844539,0.0531 0.17127,0.22442 -0.67327,0.17127 -0.803201,0.2008 -1.051248,0.1949 -0.248047,-0.006 -0.797293,-0.0118 -0.744141,-0.15355 z"
         style="fill:#ececec;stroke:#000000;stroke-width:0.26458332px;stroke-linecap:butt;stroke-linejoin:miter;stroke-opacity:1" />
    </g>
    <flowRoot
       xml:space="preserve"
       id="flowRoot822"
       style="font-style:normal;font-weight:normal;font-size:40px;line-height:0.5;font-family:sans-serif;letter-spacing:0px;word-spacing:0px;fill:#4b4b4b;fill-opacity:1;stroke:#000000;stroke-width:0.33249355;stroke-miterlimit:4;stroke-dasharray:none;stroke-opacity:1;stroke-linecap:round;stroke-linejoin:round;"
       transform="matrix(0.64963666,0,0,0.64963666,10.459533,114.04997)"><flowRegion
         id="flowRegion824"
         style="line-height:0.5;fill:#4b4b4b;fill-opacity:1;stroke:#000000;stroke-width:0.33249355;stroke-miterlimit:4;stroke-dasharray:none;stroke-opacity:1;stroke-linecap:round;stroke-linejoin:round;"><rect
           id="rect826"
           width="126.93575"
           height="108.79284"
           x="18.571428"
           y="209.38133"
           style="line-height:0.5;fill:#4b4b4b;fill-opacity:1;stroke:#000000;stroke-width:0.33249355;stroke-miterlimit:4;stroke-dasharray:none;stroke-opacity:1;stroke-linecap:round;stroke-linejoin:round;" /></flowRegion><flowPara
         id="flowPara828"
         style="font-weight:bold;font-size:26.5085125px;line-height:1.25;stroke-width:0.33249355;stroke-miterlimit:4;stroke-dasharray:none;stroke-linecap:round;stroke-linejoin:round;">RFMP</flowPara><flowPara
         style="font-weight:bold;font-size:26.5085125px;line-height:1.25;stroke-width:0.33249355;stroke-miterlimit:4;stroke-dasharray:none;stroke-linecap:round;stroke-linejoin:round;"
         id="flowPara849">Comp</flowPara></flowRoot>  </g>
</svg>
